<?xml version="1.0" encoding="UTF-8"?>
<svg version="1.1" xmlns="http://www.w3.org/2000/svg" width="600" height="600" viewBox="0 0 600 600">
  <path d="M0 0 C2.64812803 2.33334876 3.84665318 4.52200085 5.1796875 7.7734375 C5.81547729 9.31294067 5.81547729 9.31294067 6.46411133 10.88354492 C6.92970459 12.0357251 7.39529785 13.18790527 7.875 14.375 C8.38079821 15.6125109 8.88691431 16.8498919 9.39331055 18.0871582 C18.06002419 39.34259535 26.44582714 60.71562334 34.84805298 82.07662964 C35.94466699 84.85957784 37.04729354 87.6400736 38.15112305 90.42016602 C38.78845953 92.03523583 39.42559937 93.65038326 40.0625 95.265625 C40.34732742 95.97845139 40.63215485 96.69127777 40.9256134 97.42570496 C43.1761461 103.16019712 45.42170405 108.9052093 43.31323242 114.97802734 C42.99717041 115.6530127 42.6811084 116.32799805 42.35546875 117.0234375 C41.99074463 117.80823486 41.62602051 118.59303223 41.25024414 119.40161133 C39.40834898 123.22963128 37.55470624 127.05154662 35.68579102 130.86645508 C20.68815833 161.57723397 8.24170334 197.97393551 19.29296875 232.19140625 C21.73615215 239.2348977 24.5208829 245.98693869 29 252 C29.61875 252.886875 30.2375 253.77375 30.875 254.6875 C37.13875317 261.50393727 44.40710379 264.99823788 53.66259766 265.45507812 C62.03106543 265.63517147 68.58298617 264.09528371 76 260 C76.67546875 259.6390625 77.3509375 259.278125 78.046875 258.90625 C87.10067523 253.29770118 91.59681667 242.64872578 95 233 C95.36867188 232.01386719 95.73734375 231.02773438 96.1171875 230.01171875 C103.47508835 203.31972046 92.42810983 174.60766352 82.125 150.4375 C68.28677273 117.82052077 55.99929327 81.63637118 69.1875 46.75 C75.16699542 33.47409647 86.03530214 20.87352516 99 14 C99.66 14 100.32 14 101 14 C100.16911206 19.76661032 99.17048608 25.42360431 97.75390625 31.07421875 C91.0404565 58.32053316 92.49206131 83.55776228 106.375 108.3125 C110.50008698 115.06755509 115.41602637 120.99519657 120.56640625 126.984375 C135.47721095 144.34230115 149.34871838 162.80648903 156 185 C156.26780273 185.87342041 156.53560547 186.74684082 156.81152344 187.64672852 C159.04366174 195.59723533 159.47035958 203.08177603 159.375 211.3125 C159.35759766 213.23823853 159.35759766 213.23823853 159.33984375 215.20288086 C158.92046122 239.47927056 150.68533354 262.51496775 133.85546875 280.36328125 C119.32003899 293.78518972 100.93484974 299.09736735 82 303 C80.30423828 303.35578125 80.30423828 303.35578125 78.57421875 303.71875 C71.54740028 304.98450803 64.55603912 305.1977081 57.4375 305.4375 C43.37887692 305.43518915 43.37887692 305.43518915 31.3125 311.5 C29.18859548 315.54553243 28.86800833 318.5785667 28.84178162 323.0933075 C28.8319928 324.36796875 28.82220398 325.64263 28.81211853 326.95591736 C28.80621433 328.37124596 28.80040389 329.78657496 28.79467773 331.2019043 C28.78509912 332.69001538 28.77508905 334.17812375 28.76467896 335.66622925 C28.73762203 339.70929369 28.71661673 343.75236981 28.69667697 347.79547477 C28.67482228 352.01958077 28.64743106 356.24365073 28.62062073 360.46772766 C28.57068685 368.46807505 28.52575059 376.46844244 28.48259836 384.46882898 C28.43323194 393.57636693 28.3783116 402.68386872 28.32291877 411.7913717 C28.20908804 430.52754907 28.10298458 449.26375966 28 468 C10.18 468 -7.64 468 -26 468 C-26.00410889 463.30048096 -26.00821777 458.60096191 -26.01245117 453.7590332 C-26.02962883 438.25241239 -26.07384466 422.74595645 -26.13209057 407.23943806 C-26.16675087 397.83546159 -26.19209745 388.43163186 -26.19555664 379.02758789 C-26.19859509 370.83146569 -26.21906946 362.63560475 -26.26052457 354.43958348 C-26.28186721 350.09935421 -26.29444879 345.75949648 -26.28615379 341.41921425 C-26.27862149 337.33390022 -26.29440212 333.24933952 -26.32806015 329.16416359 C-26.33630346 327.66499552 -26.33603145 326.16575269 -26.32659721 324.66659164 C-26.31498715 322.61894096 -26.33704073 320.57118204 -26.36076355 318.52363586 C-26.36352893 317.37784719 -26.36629431 316.23205851 -26.36914349 315.05154896 C-27.19351411 311.06394279 -28.91851678 309.56857776 -32 307 C-35.06881753 305.46559124 -38.35785508 305.60133488 -41.734375 305.38671875 C-43.34697533 305.27499223 -44.95952237 305.16249434 -46.57202148 305.04931641 C-47.41803925 304.99076477 -48.26405701 304.93221313 -49.13571167 304.87188721 C-80.61727206 302.65147528 -110.75322963 299.44294564 -134 276 C-134.80308594 275.23042969 -135.60617187 274.46085937 -136.43359375 273.66796875 C-146.79501547 263.126973 -152.86930371 249.29089861 -156 235 C-156.17370117 234.25282715 -156.34740234 233.5056543 -156.52636719 232.73583984 C-162.22852949 206.82200241 -155.32708231 178.95582224 -141.21728516 156.83007812 C-135.2220853 147.81683742 -128.54386139 139.4198749 -121.2109375 131.46484375 C-99.84126483 107.64105673 -90.47875652 80.91970258 -92 49 C-92.91755472 39.45169616 -95.63669292 30.18794188 -98.328125 21.01171875 C-99 18 -99 18 -98 15 C-79.92898086 25.68457596 -68.5373436 38.98632293 -62.61962891 59.25195312 C-61.55035862 63.99415422 -61.5117351 68.65608448 -61.5625 73.5 C-61.57224854 74.55678955 -61.58199707 75.6135791 -61.59204102 76.70239258 C-62.00439172 95.15753278 -68.39897914 112.18999041 -73.93652344 129.63720703 C-76.39014304 137.39573698 -78.7200611 145.18887944 -81 153 C-81.34562988 154.17933105 -81.69125977 155.35866211 -82.04736328 156.57373047 C-97.25512338 201.60391912 -97.25512338 201.60391912 -89.63671875 246.3046875 C-84.19308089 255.26915081 -77.12108437 260.92903692 -67.15234375 264.265625 C-56.38659299 266.77363137 -46.57553013 265.45908497 -37 260 C-34.83988827 258.44202468 -32.96330625 256.80830839 -31 255 C-30.34 255 -29.68 255 -29 255 C-28.73703125 254.42765625 -28.4740625 253.8553125 -28.203125 253.265625 C-26.92639119 250.86138601 -25.41827765 248.89922256 -23.75 246.75 C-20.67690145 242.40018619 -18.56688891 238.07287545 -16.6875 233.125 C-16.44547852 232.50206055 -16.20345703 231.87912109 -15.95410156 231.23730469 C-12.36515749 221.30063726 -11.65425999 211.04603075 -11.75 200.5625 C-11.75821777 199.46284912 -11.76643555 198.36319824 -11.77490234 197.23022461 C-12.11018234 172.91881969 -20.92491738 150.48766622 -33.78515625 130.00390625 C-39.29733316 120.91147295 -40.43493629 110.43313383 -39 100 C-37.68026703 94.94541021 -35.34252331 90.25845616 -33.15087891 85.53564453 C-30.92137016 80.62353638 -28.90947564 75.6202761 -26.875 70.625 C-26.41472412 69.49916504 -25.95444824 68.37333008 -25.48022461 67.21337891 C-17.36042753 47.19380807 -9.86650469 26.8721891 -2.91503906 6.41821289 C-1.0980922 1.0980922 -1.0980922 1.0980922 0 0 Z " fill="#FF7C01" transform="translate(300,66)"/>
  <path d="M0 0 C2.97 0.495 2.97 0.495 6 1 C6.33 1.99 6.66 2.98 7 4 C4 5 4 5 1 4 C0.3125 1.9375 0.3125 1.9375 0 0 Z " fill="#FF830F" transform="translate(405,180)"/>
</svg>
