<?xml version="1.0" encoding="UTF-8"?>
<svg version="1.1" xmlns="http://www.w3.org/2000/svg" width="2081" height="669">
<path d="M0 0 C686.73 0 1373.46 0 2081 0 C2081 220.77 2081 441.54 2081 669 C1394.27 669 707.54 669 0 669 C0 448.23 0 227.46 0 0 Z " fill="#FEFEFE" transform="translate(0,0)"/>
<path d="M0 0 C2.64812803 2.33334876 3.84665318 4.52200085 5.1796875 7.7734375 C5.81547729 9.31294067 5.81547729 9.31294067 6.46411133 10.88354492 C6.92970459 12.0357251 7.39529785 13.18790527 7.875 14.375 C8.38079821 15.6125109 8.88691431 16.8498919 9.39331055 18.0871582 C18.06002419 39.34259535 26.44582714 60.71562334 34.84805298 82.07662964 C35.94466699 84.85957784 37.04729354 87.6400736 38.15112305 90.42016602 C38.78845953 92.03523583 39.42559937 93.65038326 40.0625 95.265625 C40.34732742 95.97845139 40.63215485 96.69127777 40.9256134 97.42570496 C43.1761461 103.16019712 45.42170405 108.9052093 43.31323242 114.97802734 C42.99717041 115.6530127 42.6811084 116.32799805 42.35546875 117.0234375 C41.99074463 117.80823486 41.62602051 118.59303223 41.25024414 119.40161133 C39.40834898 123.22963128 37.55470624 127.05154662 35.68579102 130.86645508 C20.68815833 161.57723397 8.24170334 197.97393551 19.29296875 232.19140625 C21.73615215 239.2348977 24.5208829 245.98693869 29 252 C29.61875 252.886875 30.2375 253.77375 30.875 254.6875 C37.13875317 261.50393727 44.40710379 264.99823788 53.66259766 265.45507812 C62.03106543 265.63517147 68.58298617 264.09528371 76 260 C76.67546875 259.6390625 77.3509375 259.278125 78.046875 258.90625 C87.10067523 253.29770118 91.59681667 242.64872578 95 233 C95.36867188 232.01386719 95.73734375 231.02773438 96.1171875 230.01171875 C103.47508835 203.31972046 92.42810983 174.60766352 82.125 150.4375 C68.28677273 117.82052077 55.99929327 81.63637118 69.1875 46.75 C75.16699542 33.47409647 86.03530214 20.87352516 99 14 C99.66 14 100.32 14 101 14 C100.16911206 19.76661032 99.17048608 25.42360431 97.75390625 31.07421875 C91.0404565 58.32053316 92.49206131 83.55776228 106.375 108.3125 C110.50008698 115.06755509 115.41602637 120.99519657 120.56640625 126.984375 C135.47721095 144.34230115 149.34871838 162.80648903 156 185 C156.26780273 185.87342041 156.53560547 186.74684082 156.81152344 187.64672852 C159.04366174 195.59723533 159.47035958 203.08177603 159.375 211.3125 C159.35759766 213.23823853 159.35759766 213.23823853 159.33984375 215.20288086 C158.92046122 239.47927056 150.68533354 262.51496775 133.85546875 280.36328125 C119.32003899 293.78518972 100.93484974 299.09736735 82 303 C80.30423828 303.35578125 80.30423828 303.35578125 78.57421875 303.71875 C71.54740028 304.98450803 64.55603912 305.1977081 57.4375 305.4375 C43.37887692 305.43518915 43.37887692 305.43518915 31.3125 311.5 C29.18859548 315.54553243 28.86800833 318.5785667 28.84178162 323.0933075 C28.8319928 324.36796875 28.82220398 325.64263 28.81211853 326.95591736 C28.80621433 328.37124596 28.80040389 329.78657496 28.79467773 331.2019043 C28.78509912 332.69001538 28.77508905 334.17812375 28.76467896 335.66622925 C28.73762203 339.70929369 28.71661673 343.75236981 28.69667697 347.79547477 C28.67482228 352.01958077 28.64743106 356.24365073 28.62062073 360.46772766 C28.57068685 368.46807505 28.52575059 376.46844244 28.48259836 384.46882898 C28.43323194 393.57636693 28.3783116 402.68386872 28.32291877 411.7913717 C28.20908804 430.52754907 28.10298458 449.26375966 28 468 C10.18 468 -7.64 468 -26 468 C-26.00410889 463.30048096 -26.00821777 458.60096191 -26.01245117 453.7590332 C-26.02962883 438.25241239 -26.07384466 422.74595645 -26.13209057 407.23943806 C-26.16675087 397.83546159 -26.19209745 388.43163186 -26.19555664 379.02758789 C-26.19859509 370.83146569 -26.21906946 362.63560475 -26.26052457 354.43958348 C-26.28186721 350.09935421 -26.29444879 345.75949648 -26.28615379 341.41921425 C-26.27862149 337.33390022 -26.29440212 333.24933952 -26.32806015 329.16416359 C-26.33630346 327.66499552 -26.33603145 326.16575269 -26.32659721 324.66659164 C-26.31498715 322.61894096 -26.33704073 320.57118204 -26.36076355 318.52363586 C-26.36352893 317.37784719 -26.36629431 316.23205851 -26.36914349 315.05154896 C-27.19351411 311.06394279 -28.91851678 309.56857776 -32 307 C-35.06881753 305.46559124 -38.35785508 305.60133488 -41.734375 305.38671875 C-43.34697533 305.27499223 -44.95952237 305.16249434 -46.57202148 305.04931641 C-47.41803925 304.99076477 -48.26405701 304.93221313 -49.13571167 304.87188721 C-80.61727206 302.65147528 -110.75322963 299.44294564 -134 276 C-134.80308594 275.23042969 -135.60617187 274.46085937 -136.43359375 273.66796875 C-146.79501547 263.126973 -152.86930371 249.29089861 -156 235 C-156.17370117 234.25282715 -156.34740234 233.5056543 -156.52636719 232.73583984 C-162.22852949 206.82200241 -155.32708231 178.95582224 -141.21728516 156.83007812 C-135.2220853 147.81683742 -128.54386139 139.4198749 -121.2109375 131.46484375 C-99.84126483 107.64105673 -90.47875652 80.91970258 -92 49 C-92.91755472 39.45169616 -95.63669292 30.18794188 -98.328125 21.01171875 C-99 18 -99 18 -98 15 C-79.92898086 25.68457596 -68.5373436 38.98632293 -62.61962891 59.25195312 C-61.55035862 63.99415422 -61.5117351 68.65608448 -61.5625 73.5 C-61.57224854 74.55678955 -61.58199707 75.6135791 -61.59204102 76.70239258 C-62.00439172 95.15753278 -68.39897914 112.18999041 -73.93652344 129.63720703 C-76.39014304 137.39573698 -78.7200611 145.18887944 -81 153 C-81.34562988 154.17933105 -81.69125977 155.35866211 -82.04736328 156.57373047 C-97.25512338 201.60391912 -97.25512338 201.60391912 -89.63671875 246.3046875 C-84.19308089 255.26915081 -77.12108437 260.92903692 -67.15234375 264.265625 C-56.38659299 266.77363137 -46.57553013 265.45908497 -37 260 C-34.83988827 258.44202468 -32.96330625 256.80830839 -31 255 C-30.34 255 -29.68 255 -29 255 C-28.73703125 254.42765625 -28.4740625 253.8553125 -28.203125 253.265625 C-26.92639119 250.86138601 -25.41827765 248.89922256 -23.75 246.75 C-20.67690145 242.40018619 -18.56688891 238.07287545 -16.6875 233.125 C-16.44547852 232.50206055 -16.20345703 231.87912109 -15.95410156 231.23730469 C-12.36515749 221.30063726 -11.65425999 211.04603075 -11.75 200.5625 C-11.75821777 199.46284912 -11.76643555 198.36319824 -11.77490234 197.23022461 C-12.11018234 172.91881969 -20.92491738 150.48766622 -33.78515625 130.00390625 C-39.29733316 120.91147295 -40.43493629 110.43313383 -39 100 C-37.68026703 94.94541021 -35.34252331 90.25845616 -33.15087891 85.53564453 C-30.92137016 80.62353638 -28.90947564 75.6202761 -26.875 70.625 C-26.41472412 69.49916504 -25.95444824 68.37333008 -25.48022461 67.21337891 C-17.36042753 47.19380807 -9.86650469 26.8721891 -2.91503906 6.41821289 C-1.0980922 1.0980922 -1.0980922 1.0980922 0 0 Z " fill="#FF7C01" transform="translate(536,95)"/>
<path d="M0 0 C1.05098373 0.00231125 1.05098373 0.00231125 2.12319946 0.00466919 C31.72612347 0.15919538 58.09763229 11.19226462 79.66015625 31.65234375 C102.45474 55.61588051 112.19038749 85.03045109 111.64453125 117.76953125 C110.66806607 141.11153454 101.4935538 164.67193663 86.25 182.375 C85.54359375 183.22964844 84.8371875 184.08429688 84.109375 184.96484375 C69.05962928 202.53190305 49.35636482 213.43409814 27.125 219.125 C25.88991699 219.44162598 25.88991699 219.44162598 24.62988281 219.76464844 C-6.41684476 227.3005022 -38.01131042 220.37615064 -65.12109375 204.38671875 C-77.65343198 196.24146587 -88.95333183 185.15287284 -96.75 172.375 C-97.2553125 171.61445312 -97.760625 170.85390625 -98.28125 170.0703125 C-113.78452633 145.94531616 -118.15731925 113.18313788 -112.21435547 85.38012695 C-111.20935887 81.32513506 -110.06176831 77.34102769 -108.75 73.375 C-108.37746094 72.24578125 -108.00492188 71.1165625 -107.62109375 69.953125 C-97.30700994 42.78431888 -75.81076303 21.38955995 -49.7199707 9.36254883 C-33.55356496 2.17440288 -17.63007564 -0.05913046 0 0 Z " fill="#414141" transform="translate(1591.75,353.625)"/>
<path d="M0 0 C3.52874877 2.39104099 4.85229462 4.50660101 6.88305664 8.23706055 C7.38702217 9.1581385 7.38702217 9.1581385 7.90116882 10.0978241 C11.7107911 17.17648888 15.01803801 24.4867901 18.28540039 31.8269043 C18.94470013 33.29536796 19.60445754 34.76362622 20.26464844 36.23168945 C21.88667615 39.84386992 23.49967442 43.45999664 25.10961914 47.07757568 C26.31845823 49.78968617 27.53698187 52.49742999 28.75415039 55.20581055 C47.99832942 98.26751717 65.67865376 142.13620631 82.97290039 186.0144043 C83.39104004 187.07498047 83.80917969 188.13555664 84.23999023 189.22827148 C85.38848707 192.15381877 86.52705362 195.08295927 87.66040039 198.0144043 C88.1515332 199.26954834 88.1515332 199.26954834 88.65258789 200.55004883 C88.9477832 201.32203613 89.24297852 202.09402344 89.54711914 202.8894043 C89.80066162 203.54682617 90.0542041 204.20424805 90.31542969 204.8815918 C91.13044854 207.52548511 91.51806369 210.28538411 91.97290039 213.0144043 C78.77290039 213.0144043 65.57290039 213.0144043 51.97290039 213.0144043 C43.33945795 195.74751942 37.60109047 177.09128633 30.97290039 159.0144043 C-3.01709961 158.6844043 -37.00709961 158.3544043 -72.02709961 158.0144043 C-73.01709961 160.9844043 -74.00709961 163.9544043 -75.02709961 167.0144043 C-75.9984039 169.65361966 -76.98042034 172.28388564 -77.98803711 174.90893555 C-78.26048248 175.62240646 -78.53292786 176.33587738 -78.81362915 177.07096863 C-79.38579809 178.56785474 -79.95891733 180.06437793 -80.53295898 181.56054688 C-81.3957662 183.8103894 -82.25461354 186.06171424 -83.11303711 188.31323242 C-83.67529933 189.78272447 -84.23779206 191.25212833 -84.80053711 192.72143555 C-85.04967865 193.37497513 -85.29882019 194.02851471 -85.55551147 194.70185852 C-87.92485587 200.86410892 -90.48416366 206.91135802 -93.02709961 213.0144043 C-104.90709961 213.0144043 -116.78709961 213.0144043 -129.02709961 213.0144043 C-128.25274469 207.59391987 -127.47760046 204.08068751 -125.50756836 199.16674805 C-125.25320007 198.52602859 -124.99883179 197.88530914 -124.73675537 197.22517395 C-123.90333597 195.13108439 -123.05911671 193.04154009 -122.21459961 190.9519043 C-121.62416865 189.47528344 -121.03441667 187.99839092 -120.4453125 186.52124023 C-119.23518846 183.49042369 -118.02067233 180.4614244 -116.80249023 177.43383789 C-115.16287863 173.35709465 -113.53790658 169.27468206 -111.91772461 165.19018555 C-93.40492009 118.56350383 -73.72557619 72.33975338 -53.02709961 26.6394043 C-52.60630127 25.70080566 -52.18550293 24.76220703 -51.75195312 23.79516602 C-46.70118323 12.747299 -41.76553964 2.45792566 -29.99658203 -2.37255859 C-20.99232729 -5.17529612 -8.37013952 -3.92418504 0 0 Z " fill="#414141" transform="translate(900.027099609375,356.985595703125)"/>
<path d="M0 0 C3.66428727 3.0017448 6.97989467 6.2710442 10.25634766 9.68798828 C10.94341797 10.39052734 11.63048828 11.09306641 12.33837891 11.81689453 C27.43267842 28.09506068 31.01572342 48.86127665 30.62744141 70.27001953 C29.79377492 90.2691149 21.28814459 108.51363318 7.25634766 122.68798828 C-8.59518923 136.7782433 -27.92413181 142.82147817 -48.84521484 142.06689453 C-65.18555665 141.04762018 -80.51788343 134.61062291 -92.74365234 123.68798828 C-93.42943359 123.08341797 -94.11521484 122.47884766 -94.82177734 121.85595703 C-109.36248239 108.23098341 -117.14576911 87.96162252 -117.86865234 68.28564453 C-118.2318241 45.92788322 -112.13767883 25.28587374 -96.74365234 8.68798828 C-71.82341079 -16.54320103 -29.07020786 -21.87388645 0 0 Z " fill="#FEFEFE" transform="translate(1633.74365234375,400.31201171875)"/>
<path d="M0 0 C1.6470461 1.6470461 1.12817419 3.55118945 1.13130188 5.82054138 C1.13531006 6.86450073 1.13931824 7.90846008 1.14344788 8.98405457 C1.14291916 10.13972427 1.14239044 11.29539398 1.1418457 12.48608398 C1.14532013 13.6960202 1.14879456 14.90595642 1.15237427 16.15255737 C1.15975109 18.79353334 1.16541545 21.43445854 1.16866493 24.07543755 C1.1745804 28.26851893 1.19113303 32.4615156 1.21000671 36.65455627 C1.21634541 38.09219641 1.22267101 39.5298366 1.22898388 40.96747684 C1.23214969 41.68788753 1.2353155 42.40829821 1.23857725 43.15053952 C1.28054006 52.91259963 1.31353142 62.67462351 1.32592773 72.43676758 C1.33437063 79.01791258 1.3571006 85.59885066 1.3952834 92.17989212 C1.41486165 95.65585858 1.42751111 99.13151703 1.42244911 102.60754204 C1.39636553 124.60405146 1.62325782 148.50638318 17 166 C29.36220118 176.86627095 43.91717458 179.35916031 59.875 179.3125 C60.96941406 179.32861328 62.06382813 179.34472656 63.19140625 179.36132812 C77.26324646 179.36965466 92.15358666 175.48827527 102.9375 165.9375 C111.5846709 156.08933314 114.61502051 143.51473111 117 131 C117.17673248 130.16085556 117.35346497 129.32171112 117.53555298 128.45713806 C118.18933691 123.59065981 118.15281187 118.77832282 118.15771484 113.87329102 C118.16279556 112.76199829 118.16787628 111.65070557 118.17311096 110.5057373 C118.1837923 108.09784794 118.1924212 105.68994879 118.19923019 103.28204536 C118.21104371 99.4696297 118.23050185 95.65732606 118.25234985 91.84495544 C118.3138923 81.00726781 118.36827933 70.16960077 118.40136719 59.33178711 C118.42170748 52.69823773 118.45761103 46.06487816 118.50212479 39.43144035 C118.51628104 36.90573496 118.52500637 34.37999303 118.52817917 31.85424995 C118.53308824 28.32131424 118.55624602 24.78892762 118.58349609 21.25610352 C118.57898689 19.69499092 118.57898689 19.69499092 118.5743866 18.1023407 C118.64086994 12.29737614 119.17867818 8.11436555 122 3 C126.84616328 -1.71863266 131.49470017 -3.28804397 138.1875 -3.3125 C143.56241803 -3.23912228 151.89538313 -3.10461687 156 1 C156.10246493 2.57216892 156.13519728 4.14893058 156.14044189 5.72442627 C156.14615204 6.74722183 156.15186218 7.7700174 156.15774536 8.82380676 C156.15942215 10.52218941 156.15942215 10.52218941 156.16113281 12.25488281 C156.16609772 13.44049301 156.17106262 14.62610321 156.17617798 15.84764099 C156.18832337 19.1154223 156.19575785 22.38316775 156.20018864 25.6509676 C156.20312142 27.7006209 156.20722726 29.75026863 156.21169281 31.79991913 C156.22539603 38.23442123 156.23504112 44.66891053 156.2388947 51.10342622 C156.24334168 58.48657388 156.26071876 65.86953328 156.2898953 73.2526238 C156.31172654 78.98031703 156.32161071 84.70795827 156.32293582 90.43569255 C156.32397142 93.84411651 156.32960321 97.25236428 156.34775543 100.66074371 C156.49980128 134.23861072 153.0221371 165.48963337 129.3125 191.1875 C110.64251716 208.91674727 83.48787947 214.671243 58.55859375 214.40698242 C35.1193909 213.73039099 10.96139606 209.12926823 -7 193 C-7.82113281 192.27167969 -8.64226562 191.54335938 -9.48828125 190.79296875 C-26.51848961 174.79646045 -34.74141201 150.85878391 -36.19812012 127.87393761 C-36.2841244 124.70142956 -36.31576105 121.53376729 -36.32226562 118.36010742 C-36.33219543 117.17137024 -36.34212524 115.98263306 -36.35235596 114.75787354 C-36.38127749 110.87371417 -36.39514116 106.98971751 -36.40625 103.10546875 C-36.41173317 101.75688394 -36.41744685 100.40830006 -36.42338562 99.05971718 C-36.45061094 92.73153731 -36.47001502 86.40340784 -36.4777894 80.07517356 C-36.4867763 72.80440392 -36.5220407 65.53438144 -36.57979059 58.26383895 C-36.62309181 52.61422632 -36.64320084 46.96482379 -36.64587164 41.31504709 C-36.64795933 37.95226657 -36.65959529 34.59019447 -36.69551086 31.22759056 C-36.72965775 27.48212129 -36.72586941 23.73848207 -36.71289062 19.99291992 C-36.73132019 18.89196487 -36.74974976 17.79100983 -36.76873779 16.6566925 C-36.69931306 10.25448894 -35.7477997 6.4621548 -31.5865097 1.52368641 C-23.42188804 -6.31762904 -9.58308497 -3.95199872 0 0 Z " fill="#414141" transform="translate(1061,362)"/>
<path d="M0 0 C23.59164747 -0.09347303 47.18326716 -0.16399383 70.77506256 -0.20724869 C81.72933648 -0.22786718 92.68349528 -0.25597426 103.63769531 -0.30175781 C113.18622906 -0.34164727 122.73467944 -0.367438 132.2832942 -0.37635398 C137.33846833 -0.38156513 142.39340395 -0.39379855 147.44850159 -0.42292023 C152.20911495 -0.45012255 156.96939213 -0.45843523 161.73007584 -0.45243073 C163.47474623 -0.4535288 165.21942817 -0.46145397 166.96403122 -0.4768219 C183.3534992 -0.61408086 183.3534992 -0.61408086 190 4 C194.01521986 8.14474308 194.1855856 12.59658668 194.3125 18.1875 C194.36857422 19.78658203 194.36857422 19.78658203 194.42578125 21.41796875 C194 25 194 25 190 34 C164.26 34 138.52 34 112 34 C112 92.41 112 150.82 112 211 C99.79 211 87.58 211 75 211 C75 152.59 75 94.18 75 34 C52.56 34 30.12 34 7 34 C-2.28512152 28.19679905 -2.28512152 28.19679905 -4 23 C-4.43359375 19.66796875 -4.43359375 19.66796875 -4.4375 16.1875 C-4.45683594 15.04667969 -4.47617188 13.90585937 -4.49609375 12.73046875 C-4.04668427 9.35105103 -3.37077976 7.30454035 -1.96899414 4.2668457 C-1.41883385 3.06436943 -1.41883385 3.06436943 -0.8575592 1.83760071 C-0.57456467 1.23119247 -0.29157013 0.62478424 0 0 Z " fill="#414141" transform="translate(1261,359)"/>

<path d="M0 0 C4.00813212 2.70119152 5.40523327 6.61313817 7.22558594 10.95776367 C7.89195068 12.44566406 7.89195068 12.44566406 8.57177734 13.96362305 C9.84275781 16.81357046 11.08590489 19.67428094 12.324646 22.53833008 C13.83896042 26.00503752 15.40486927 29.44848241 16.96386719 32.89526367 C25.7054917 52.27354738 34.06254932 71.80382664 42.16308594 91.45776367 C42.84781982 93.11485352 42.84781982 93.11485352 43.54638672 94.80541992 C49.55383037 109.36520316 55.3787226 123.99578404 61.16308594 138.64526367 C61.49072937 139.47494659 61.8183728 140.30462952 62.15594482 141.15945435 C63.09685041 143.54364454 64.03651914 145.92831745 64.97558594 148.31323242 C65.39210922 149.36947311 65.39210922 149.36947311 65.81704712 150.447052 C66.60399342 152.44873359 67.38368963 154.45313255 68.16308594 156.45776367 C68.59113525 157.53630112 68.59113525 157.53630112 69.02783203 158.6366272 C70.22487334 161.71026191 71.16308594 164.12891088 71.16308594 167.45776367 C64.89308594 167.45776367 58.62308594 167.45776367 52.16308594 167.45776367 C51.45023438 165.5731543 50.73738281 163.68854492 50.00292969 161.74682617 C49.28877322 159.86079422 48.57460839 157.97476542 47.86026001 156.08880615 C47.35513657 154.75494587 46.85023224 153.42100258 46.34555054 152.0869751 C43.88674305 145.58871944 41.4270076 139.09166362 38.87402344 132.62963867 C38.54797119 131.80383301 38.22191895 130.97802734 37.88598633 130.12719727 C37.2933232 128.63353996 36.69637163 127.1415748 36.09448242 125.65161133 C34.94429248 122.75311841 34.16308594 120.60890504 34.16308594 117.45776367 C3.47308594 117.45776367 -27.21691406 117.45776367 -58.83691406 117.45776367 C-59.16691406 119.10776367 -59.49691406 120.75776367 -59.83691406 122.45776367 C-60.32258121 123.89323039 -60.84581691 125.31646308 -61.40332031 126.72558594 C-61.72034912 127.53314835 -62.03737793 128.34071075 -62.36401367 129.17274475 C-62.7056958 130.03121506 -63.04737793 130.88968536 -63.39941406 131.77416992 C-63.75076416 132.66764633 -64.10211426 133.56112274 -64.46411133 134.48167419 C-65.58445099 137.32943742 -66.71025594 140.1749949 -67.83691406 143.02026367 C-68.96298071 145.8693277 -70.08781483 148.71885813 -71.2097168 151.56956482 C-71.90717965 153.3413 -72.60712123 155.11206186 -73.30981445 156.88172913 C-73.78535767 158.0883445 -73.78535767 158.0883445 -74.27050781 159.31933594 C-74.54950928 160.02373306 -74.82851074 160.72813019 -75.1159668 161.45387268 C-75.98346182 163.7600318 -75.98346182 163.7600318 -76.83691406 167.45776367 C-82.44691406 167.45776367 -88.05691406 167.45776367 -93.83691406 167.45776367 C-91.75047788 160.20145555 -89.32219176 153.18059253 -86.58691406 146.14526367 C-85.94653198 144.49155762 -85.94653198 144.49155762 -85.29321289 142.80444336 C-71.64162084 107.74625334 -56.90359989 73.1998814 -41.40234375 38.92211914 C-40.35867624 36.61244322 -39.31765948 34.30156766 -38.27929688 31.98950195 C-36.80431542 28.70542982 -35.3217335 25.42489741 -33.83691406 22.14526367 C-33.18795166 20.69627686 -33.18795166 20.69627686 -32.52587891 19.21801758 C-28.79053291 11.01424753 -25.27852602 3.79631138 -17.83691406 -1.54223633 C-11.39235859 -3.69042148 -6.0159094 -2.82219467 0 0 Z " fill="#434343" transform="translate(1036.8369140625,107.542236328125)"/>

<path d="M0 0 C3.70718215 3.02945232 5.0293188 4.79483703 5.57421875 9.62109375 C5.43412793 14.02159357 3.84654711 16.3588083 1.13671875 19.74609375 C-2.14796203 19.1302161 -4.18434142 17.96470862 -6.86328125 15.99609375 C-12.1968006 12.33807143 -17.83219587 10.01891193 -23.86328125 7.74609375 C-24.62511719 7.44703125 -25.38695312 7.14796875 -26.171875 6.83984375 C-43.91740558 0.32772244 -70.06538197 -0.62756889 -87.43237305 6.984375 C-95.35707146 10.74531903 -99.51875742 14.84390756 -103.23828125 22.62109375 C-104.95906154 31.2249952 -104.07274034 38.96098618 -99.86328125 46.74609375 C-88.10784973 61.75122389 -62.37019331 63.21498087 -44.71777344 66.02514648 C-25.38065678 69.12833525 -4.67675583 73.65991354 8.13671875 89.74609375 C9.78536852 92.32740824 11.0666997 94.8797733 12.13671875 97.74609375 C12.4925 98.65617187 12.84828125 99.56625 13.21484375 100.50390625 C16.48125198 111.9916979 14.23137012 124.94067143 8.94921875 135.43359375 C1.32388764 148.08983858 -11.81329873 155.25987614 -25.86328125 158.74609375 C-57.4632568 165.78171172 -92.16357214 160.27505243 -120.22265625 144.4453125 C-122.86328125 142.74609375 -122.86328125 142.74609375 -123.86328125 140.74609375 C-122.53515625 138.1796875 -122.53515625 138.1796875 -120.61328125 135.18359375 C-119.989375 134.19230469 -119.36546875 133.20101562 -118.72265625 132.1796875 C-116.86328125 129.74609375 -116.86328125 129.74609375 -113.86328125 128.74609375 C-111.578125 129.96875 -111.578125 129.96875 -108.80078125 131.80859375 C-87.70168052 144.52377811 -57.1612177 150.0354798 -33.11328125 144.55859375 C-31.34955435 143.99575737 -29.5984717 143.39156369 -27.86328125 142.74609375 C-26.84234375 142.41738281 -25.82140625 142.08867187 -24.76953125 141.75 C-16.45384278 138.77570054 -10.81048342 134.45067829 -6.7109375 126.515625 C-3.42055699 117.94850523 -4.13313651 109.62854277 -7.5546875 101.22265625 C-11.73655938 93.30830767 -19.78682914 90.53496068 -27.86328125 87.74609375 C-40.04026368 84.30167663 -52.42225072 82.05379745 -64.87792969 79.89428711 C-83.86312754 76.58296061 -103.31459634 71.579506 -115.86328125 55.74609375 C-122.67323037 44.49416343 -124.00569233 31.86334987 -120.9921875 19.0390625 C-118.45702154 12.56399928 -114.84370794 7.55328821 -109.86328125 2.74609375 C-109.3528125 2.215 -108.84234375 1.68390625 -108.31640625 1.13671875 C-83.49335122 -22.70324499 -26.73960149 -17.73085367 0 0 Z " fill="#434343" transform="translate(901.86328125,118.25390625)"/>
<path d="M0 0 C0.85722656 0.02449219 1.71445313 0.04898438 2.59765625 0.07421875 C4.9375 0.3125 4.9375 0.3125 7.9375 1.3125 C7.9375 24.4125 7.9375 47.5125 7.9375 71.3125 C42.5875 71.3125 77.2375 71.3125 112.9375 71.3125 C112.7792616 49.81681524 112.7792616 49.81681524 112.57714844 28.3215332 C112.56546621 25.62712231 112.55527329 22.93270438 112.546875 20.23828125 C112.53642151 19.54147751 112.52596802 18.84467377 112.51519775 18.12675476 C112.48580721 16.0636953 112.48187926 14.00195894 112.48339844 11.9387207 C112.47451599 10.77734085 112.46563354 9.615961 112.45648193 8.41938782 C113.04137003 4.64160517 114.24170258 2.97878153 116.9375 0.3125 C119.6640625 -0.2109375 119.6640625 -0.2109375 122.5625 -0.0625 C124.00496094 -0.01222656 124.00496094 -0.01222656 125.4765625 0.0390625 C127.9375 0.3125 127.9375 0.3125 129.9375 1.3125 C129.9375 55.4325 129.9375 109.5525 129.9375 165.3125 C124.6575 165.3125 119.3775 165.3125 113.9375 165.3125 C113.9375 139.2425 113.9375 113.1725 113.9375 86.3125 C78.9575 86.3125 43.9775 86.3125 7.9375 86.3125 C7.9375 112.3825 7.9375 138.4525 7.9375 165.3125 C2.3275 165.3125 -3.2825 165.3125 -9.0625 165.3125 C-9.1550457 144.38982764 -9.22645266 123.46720448 -9.26974869 102.54436874 C-9.290385 92.82980131 -9.31852599 83.11536329 -9.36425781 73.40087891 C-9.40409289 64.93497166 -9.42992504 56.46915812 -9.43885398 48.00315976 C-9.44407439 43.5193098 -9.4563663 39.03572794 -9.48542023 34.55196381 C-9.51253683 30.33306355 -9.52095267 26.11454225 -9.51493073 21.89556313 C-9.51603265 20.34594222 -9.5240091 18.79630886 -9.5393219 17.24676323 C-9.55919231 15.13260813 -9.55445163 13.01988822 -9.54351807 10.90570068 C-9.54720524 9.72211849 -9.55089241 8.5385363 -9.55469131 7.31908798 C-8.63215362 1.68369648 -5.46765304 -0.23915828 0 0 Z " fill="#434343" transform="translate(1486.0625,109.6875)"/>
<path d="M0 0 C0.95648437 0.04898438 1.91296875 0.09796875 2.8984375 0.1484375 C3.86007812 0.18195313 4.82171875 0.21546875 5.8125 0.25 C8.2734375 0.5234375 8.2734375 0.5234375 10.2734375 1.5234375 C10.2734375 25.6134375 10.2734375 49.7034375 10.2734375 74.5234375 C19.10894041 67.30140565 19.10894041 67.30140565 27.8359375 59.9609375 C32.38890894 56.08687068 37.00842973 52.31717752 41.6953125 48.60546875 C44.68311127 46.19259489 47.60393592 43.70540424 50.5234375 41.2109375 C55.59368105 36.88385021 60.77881342 32.73558957 66.04418945 28.64916992 C70.02764065 25.54321344 73.88646812 22.32225501 77.7109375 19.0234375 C82.4395931 14.96204693 87.31273775 11.15189997 92.3359375 7.4609375 C92.96749756 6.99558594 93.59905762 6.53023438 94.24975586 6.05078125 C100.79210075 1.30362966 105.13544669 -0.57698264 113.2734375 0.5234375 C115.68167538 1.61378142 117.22848716 2.80137405 119.2734375 4.5234375 C117.71278931 8.98393873 114.12709941 11.31091067 110.5234375 14.0859375 C109.8516748 14.6133252 109.17991211 15.14071289 108.48779297 15.68408203 C106.42174093 17.30425842 104.34831366 18.91458432 102.2734375 20.5234375 C99.97937903 22.31205707 97.68834088 24.10450245 95.3984375 25.8984375 C94.83350586 26.34002197 94.26857422 26.78160645 93.68652344 27.23657227 C88.24390156 31.50846825 82.91863893 35.91849881 77.59033203 40.33154297 C72.65191983 44.4128477 67.64890357 48.39682174 62.59301758 52.33105469 C57.06874446 56.64676956 51.66996355 61.1104227 46.27563477 65.58691406 C41.81979562 69.27770278 37.31144763 72.86606901 32.64453125 76.2890625 C32.19207031 76.69640625 31.73960938 77.10375 31.2734375 77.5234375 C31.2734375 78.1834375 31.2734375 78.8434375 31.2734375 79.5234375 C33.03308098 80.98534097 34.85910525 82.36772335 36.7109375 83.7109375 C37.82335661 84.5267442 38.93533254 85.34315552 40.046875 86.16015625 C41.11164063 86.94003906 42.17640625 87.71992188 43.2734375 88.5234375 C59.05884262 100.50297633 74.1167502 113.40734096 88.57861328 126.94628906 C90.34003722 128.58541304 92.1157904 130.20782025 93.89453125 131.828125 C100.63052281 137.99185222 107.13477903 144.31536749 113.3984375 150.9609375 C114.01380371 151.61094727 114.62916992 152.26095703 115.26318359 152.93066406 C118.97228506 156.91940781 122.1983523 161.02685066 125.2734375 165.5234375 C117.92483278 167.05931952 110.51831777 167.83746388 103.2734375 165.5234375 C95.56149172 160.38663445 89.62103824 153.12081847 83.62280273 146.14648438 C80.438599 142.59134721 76.94097853 139.56224238 73.2734375 136.5234375 C71.66575377 135.06898233 70.06104035 133.61122855 68.4609375 132.1484375 C63.21493806 127.41580803 57.76650051 122.96430816 52.2734375 118.5234375 C50.50215177 117.06565367 48.73132116 115.6073167 46.9609375 114.1484375 C35.05303909 104.43011022 22.86300415 95.41019043 10.2734375 86.5234375 C10.2734375 112.5934375 10.2734375 138.6634375 10.2734375 165.5234375 C4.6634375 165.5234375 -0.9465625 165.5234375 -6.7265625 165.5234375 C-6.81913498 144.74841997 -6.89052892 123.97345206 -6.93381119 103.19826984 C-6.95444155 93.55211175 -6.9825712 83.90608412 -7.02832031 74.26000977 C-7.06817357 65.85305657 -7.09399187 57.44619784 -7.10291648 49.0391528 C-7.1081338 44.58712806 -7.12040615 40.1353736 -7.14948273 35.68343544 C-7.17662802 31.49325854 -7.18500934 27.30346334 -7.17899323 23.11320686 C-7.18009387 21.57529374 -7.18805326 20.03736789 -7.2033844 18.49953079 C-7.22329972 16.39886159 -7.21849773 14.29963164 -7.20758057 12.19892883 C-7.21126774 11.02364278 -7.21495491 9.84835672 -7.21875381 8.63745594 C-6.4969696 4.07083867 -4.69926398 0.90215096 0 0 Z " fill="#424242" transform="translate(1148.7265625,109.4765625)"/>
<path d="M0 0 C19.24494711 -0.09336927 38.48984836 -0.16394279 57.73497486 -0.20724869 C66.6704801 -0.22788927 75.60584475 -0.25603832 84.54125977 -0.30175781 C92.32779316 -0.34157993 100.11422476 -0.36742192 107.90085715 -0.37635398 C112.025304 -0.38157662 116.14945959 -0.39388238 120.27381325 -0.42292023 C124.15373872 -0.45001652 128.03325222 -0.45845689 131.91326332 -0.45243073 C133.33913917 -0.45353358 134.76502841 -0.46152224 136.1908226 -0.4768219 C138.13397573 -0.49665499 140.07734859 -0.48957019 142.02058411 -0.48101807 C143.10922162 -0.48470524 144.19785913 -0.48839241 145.31948566 -0.49219131 C148 0 148 0 149.85418224 1.80740738 C151.51053943 4.97694854 151.31974843 7.4827673 151 11 C150.34 11.99 149.68 12.98 149 14 C126.56 14 104.12 14 81 14 C81 63.83 81 113.66 81 165 C75.39 165 69.78 165 64 165 C64 115.17 64 65.34 64 14 C43.21 14 22.42 14 1 14 C-1 12 -1 12 -1.23046875 9.6875 C-1.21628906 8.800625 -1.20210937 7.91375 -1.1875 7 C-1.18105469 6.113125 -1.17460938 5.22625 -1.16796875 4.3125 C-1 2 -1 2 0 0 Z " fill="#414141" transform="translate(1292,110)"/>
<path d="M0 0 C2.7108753 2.39357686 4.05165637 4.81833075 5.57421875 8.08203125 C6.06921875 9.14091553 6.56421875 10.1997998 7.07421875 11.29077148 C7.60660156 12.45294189 8.13898438 13.6151123 8.6875 14.8125 C8.96368164 15.4110379 9.23986328 16.00957581 9.52441406 16.62625122 C14.74995637 27.96293596 19.65844792 39.43249706 24.5 50.9375 C24.83857025 51.74152252 25.1771405 52.54554504 25.52597046 53.37393188 C35.81735229 77.860733 35.81735229 77.860733 39 89 C12.93 89 -13.14 89 -40 89 C-38.24297478 83.72892433 -36.60626052 78.82789877 -34.42578125 73.7890625 C-33.93102295 72.64381104 -33.43626465 71.49855957 -32.92651367 70.31860352 C-32.38893889 69.08721463 -31.85092164 67.85601883 -31.3125 66.625 C-31.03532135 65.98859589 -30.7581427 65.35219177 -30.4725647 64.69650269 C-25.97134853 54.36737094 -21.37601761 44.08040571 -16.71444702 33.82269287 C-16.04164767 32.3419385 -15.37022934 30.8605557 -14.7003479 29.378479 C-10.17078185 19.3710222 -5.28100995 9.63233212 0 0 Z " fill="#FDFDFD" transform="translate(1025,121)"/>
<path d="M0 0 C2.08806658 2.64471058 3.6937901 5.19166321 5.09375 8.25390625 C5.47837402 9.09373047 5.86299805 9.93355469 6.25927734 10.79882812 C6.87343506 12.1668457 6.87343506 12.1668457 7.5 13.5625 C7.93650879 14.52994141 8.37301758 15.49738281 8.82275391 16.49414062 C13.66066947 27.32308574 18.11007885 38.30487448 22.51757812 49.31445312 C23.82772645 52.57169935 25.1510121 55.82300737 26.48165894 59.07189941 C27.59767675 61.79939753 28.70700572 64.52958798 29.81524658 67.26025391 C30.34941583 68.57282778 30.88610595 69.88437894 31.42547607 71.19482422 C32.17911498 73.02788184 32.92178559 74.86543709 33.6640625 76.703125 C34.09154785 77.75145508 34.5190332 78.79978516 34.95947266 79.87988281 C36 83 36 83 37 90 C12.25 90 -12.5 90 -38 90 C-37.26238762 85.5743257 -36.68794727 82.81848079 -34.98828125 78.88671875 C-34.35696289 77.41114502 -34.35696289 77.41114502 -33.71289062 75.90576172 C-33.25076172 74.84373535 -32.78863281 73.78170898 -32.3125 72.6875 C-31.30826059 70.35040355 -30.30437137 68.01315659 -29.30078125 65.67578125 C-28.90332199 64.7541217 -28.90332199 64.7541217 -28.49783325 63.81384277 C-26.48759733 59.15071218 -24.50911579 54.47484096 -22.54296875 49.79296875 C-17.07731259 36.79101944 -11.56248474 23.82366009 -5.6875 11 C-4.99430664 9.48672119 -4.99430664 9.48672119 -4.28710938 7.94287109 C-1.13671359 1.13671359 -1.13671359 1.13671359 0 0 Z " fill="#FDFDFD" transform="translate(880,392)"/>
<path d="M0 0 C0.76441406 0.02449219 1.52882813 0.04898438 2.31640625 0.07421875 C4.4375 0.3125 4.4375 0.3125 7.4375 1.3125 C7.4375 55.4325 7.4375 109.5525 7.4375 165.3125 C2.1575 165.3125 -3.1225 165.3125 -8.5625 165.3125 C-8.6550457 144.38982764 -8.72645266 123.46720448 -8.76974869 102.54436874 C-8.790385 92.82980131 -8.81852599 83.11536329 -8.86425781 73.40087891 C-8.90409289 64.93497166 -8.92992504 56.46915812 -8.93885398 48.00315976 C-8.94407439 43.5193098 -8.9563663 39.03572794 -8.98542023 34.55196381 C-9.01253683 30.33306355 -9.02095267 26.11454225 -9.01493073 21.89556313 C-9.01603265 20.34594222 -9.0240091 18.79630886 -9.0393219 17.24676323 C-9.05919231 15.13260813 -9.05445163 13.01988822 -9.04351807 10.90570068 C-9.04720524 9.72211849 -9.05089241 8.5385363 -9.05469131 7.31908798 C-8.18964285 2.03487383 -5.25584868 -0.2579012 0 0 Z " fill="#404040" transform="translate(1676.5625,109.6875)"/>
<path d="M0 0 C0.99 0 1.98 0 3 0 C3.66 1.98 4.32 3.96 5 6 C4.01 6.33 3.02 6.66 2 7 C1.34 6.67 0.68 6.34 0 6 C0 4.02 0 2.04 0 0 Z " fill="#4B4B4B" transform="translate(906,369)"/>
<path d="M0 0 C0.33 0.99 0.66 1.98 1 3 C-1.30368736 4.06652192 -3.64018187 5.06421005 -6 6 C-6.66 5.67 -7.32 5.34 -8 5 C-2.25 0 -2.25 0 0 0 Z " fill="#4B4B4B" transform="translate(1229,128)"/>
<path d="M0 0 C0.66 0.33 1.32 0.66 2 1 C1.67 2.98 1.34 4.96 1 7 C-0.98 5.68 -2.96 4.36 -5 3 C-4.360625 2.690625 -3.72125 2.38125 -3.0625 2.0625 C-1.06389179 1.1654837 -1.06389179 1.1654837 0 0 Z " fill="#505050" transform="translate(1197,218)"/>
<path d="M0 0 C2.97 0.495 2.97 0.495 6 1 C6.33 1.99 6.66 2.98 7 4 C4 5 4 5 1 4 C0.3125 1.9375 0.3125 1.9375 0 0 Z " fill="#FF830F" transform="translate(641,209)"/>
<path d="M0 0 C0.66 0.33 1.32 0.66 2 1 C2 1.66 2 2.32 2 3 C0.02 3.99 -1.96 4.98 -4 6 C-4.33 5.01 -4.66 4.02 -5 3 C-3 1 -3 1 0 0 Z " fill="#4D4D4D" transform="translate(1554,393)"/>
<path d="M0 0 C0.33 0.99 0.66 1.98 1 3 C-0.98 4.32 -2.96 5.64 -5 7 C-5 6.01 -5 5.02 -5 4 C-2.5 1.8125 -2.5 1.8125 0 0 Z " fill="#494949" transform="translate(1180,167)"/>
<path d="M0 0 C0.66 0.33 1.32 0.66 2 1 C2 1.66 2 2.32 2 3 C2.66 3.33 3.32 3.66 4 4 C3.67 4.99 3.34 5.98 3 7 C1.35 5.35 -0.3 3.7 -2 2 C-1.34 1.34 -0.68 0.68 0 0 Z " fill="#4D4D4D" transform="translate(1516,545)"/>
<path d="M0 0 C0.99 0.33 1.98 0.66 3 1 C2.34 2.32 1.68 3.64 1 5 C0.01 5 -0.98 5 -2 5 C-1.125 1.125 -1.125 1.125 0 0 Z " fill="#4C4C4C" transform="translate(1193,544)"/>
<path d="M0 0 C0.66 0 1.32 0 2 0 C2.33 1.98 2.66 3.96 3 6 C2.01 6 1.02 6 0 6 C-0.38218767 4.34385343 -0.71395102 2.67542976 -1 1 C-0.67 0.67 -0.34 0.34 0 0 Z " fill="#474747" transform="translate(1044,539)"/>
</svg>
